<svg width="364" height="364" viewBox="0 0 364 364" fill="none" xmlns="http://www.w3.org/2000/svg">
<path d="M356.25 160.08C358.024 160.08 359.726 159.375 360.981 158.121C362.235 156.866 362.94 155.164 362.94 153.39C362.94 151.616 362.235 149.914 360.981 148.659C359.726 147.405 358.024 146.7 356.25 146.7H316.08V102.87H356.25C357.129 102.87 357.998 102.697 358.81 102.361C359.622 102.025 360.359 101.532 360.981 100.911C361.602 100.289 362.095 99.5518 362.431 98.7402C362.767 97.9285 362.94 97.0585 362.94 96.18C362.94 95.3014 362.767 94.4315 362.431 93.6198C362.095 92.8082 361.602 92.0707 360.981 91.4495C360.359 90.8282 359.622 90.3355 358.81 89.9993C357.998 89.663 357.129 89.49 356.25 89.49H315.52C314.282 79.045 309.564 69.3208 302.127 61.8834C294.689 54.446 284.965 49.7283 274.52 48.49V7.76C274.52 5.9857 273.815 4.28408 272.561 3.02946C271.306 1.77484 269.604 1.07 267.83 1.07C266.056 1.07 264.354 1.77484 263.099 3.02946C261.845 4.28408 261.14 5.9857 261.14 7.76V47.91H217.29V7.76C217.325 6.86036 217.178 5.96295 216.857 5.12153C216.537 4.28011 216.05 3.51199 215.426 2.86318C214.802 2.21438 214.053 1.69824 213.225 1.34568C212.396 0.993121 211.505 0.811401 210.605 0.811401C209.705 0.811401 208.814 0.993121 207.985 1.34568C207.157 1.69824 206.408 2.21438 205.784 2.86318C205.16 3.51199 204.673 4.28011 204.353 5.12153C204.032 5.96295 203.885 6.86036 203.92 7.76V47.91H160.08V7.76C160.115 6.86036 159.968 5.96295 159.647 5.12153C159.327 4.28011 158.84 3.51199 158.216 2.86318C157.592 2.21438 156.843 1.69824 156.015 1.34568C155.186 0.993121 154.295 0.811401 153.395 0.811401C152.495 0.811401 151.604 0.993121 150.775 1.34568C149.947 1.69824 149.198 2.21438 148.574 2.86318C147.95 3.51199 147.463 4.28011 147.143 5.12153C146.822 5.96295 146.675 6.86036 146.71 7.76V47.91H102.87V7.76C102.87 6.88146 102.697 6.01151 102.361 5.19984C102.025 4.38818 101.532 3.65068 100.911 3.02946C100.289 2.40823 99.5518 1.91545 98.7402 1.57925C97.9285 1.24304 97.0585 1.07 96.18 1.07C95.3014 1.07 94.4315 1.24304 93.6198 1.57925C92.8082 1.91545 92.0707 2.40823 91.4495 3.02946C90.8282 3.65068 90.3354 4.38818 89.9992 5.19984C89.663 6.01151 89.49 6.88146 89.49 7.76V48.47C79.045 49.7083 69.3208 54.426 61.8834 61.8634C54.446 69.3008 49.7282 79.025 48.49 89.47H7.74999C5.97569 89.47 4.27407 90.1748 3.01945 91.4295C1.76483 92.6841 1.05999 94.3857 1.05999 96.16C1.05999 97.9343 1.76483 99.6359 3.01945 100.891C4.27407 102.145 5.97569 102.85 7.74999 102.85H47.92V146.7H7.74999C5.97569 146.7 4.27407 147.405 3.01945 148.659C1.76483 149.914 1.05999 151.616 1.05999 153.39C1.05999 155.164 1.76483 156.866 3.01945 158.121C4.27407 159.375 5.97569 160.08 7.74999 160.08H47.92V203.91H7.74999C5.97569 203.91 4.27407 204.615 3.01945 205.869C1.76483 207.124 1.05999 208.826 1.05999 210.6C1.05999 212.374 1.76483 214.076 3.01945 215.331C4.27407 216.585 5.97569 217.29 7.74999 217.29H47.92V261.13H7.74999C6.85035 261.095 5.95294 261.242 5.11152 261.563C4.2701 261.883 3.50199 262.37 2.85318 262.994C2.20437 263.618 1.68823 264.367 1.33567 265.195C0.983112 266.024 0.801392 266.915 0.801392 267.815C0.801392 268.715 0.983112 269.606 1.33567 270.435C1.68823 271.263 2.20437 272.012 2.85318 272.636C3.50199 273.26 4.2701 273.747 5.11152 274.067C5.95294 274.388 6.85035 274.535 7.74999 274.5H48.48C49.7165 284.946 54.4337 294.671 61.8715 302.109C69.3092 309.546 79.0344 314.263 89.48 315.5V356.22C89.48 357.994 90.1848 359.696 91.4394 360.951C92.6941 362.205 94.3957 362.91 96.17 362.91C97.9443 362.91 99.6459 362.205 100.901 360.951C102.155 359.696 102.86 357.994 102.86 356.22V316.08H146.7V356.24C146.665 357.14 146.812 358.037 147.133 358.878C147.453 359.72 147.94 360.488 148.564 361.137C149.188 361.786 149.937 362.302 150.765 362.654C151.594 363.007 152.485 363.189 153.385 363.189C154.285 363.189 155.176 363.007 156.005 362.654C156.833 362.302 157.582 361.786 158.206 361.137C158.83 360.488 159.317 359.72 159.637 358.878C159.958 358.037 160.105 357.14 160.07 356.24V316.08H203.91V356.24C203.875 357.14 204.022 358.037 204.343 358.878C204.663 359.72 205.15 360.488 205.774 361.137C206.398 361.786 207.147 362.302 207.975 362.654C208.804 363.007 209.695 363.189 210.595 363.189C211.495 363.189 212.386 363.007 213.215 362.654C214.043 362.302 214.792 361.786 215.416 361.137C216.04 360.488 216.527 359.72 216.847 358.878C217.168 358.037 217.315 357.14 217.28 356.24V316.08H261.12V356.24C261.12 357.119 261.293 357.988 261.629 358.8C261.965 359.612 262.458 360.349 263.079 360.971C263.701 361.592 264.438 362.085 265.25 362.421C266.062 362.757 266.931 362.93 267.81 362.93C268.689 362.93 269.558 362.757 270.37 362.421C271.182 362.085 271.919 361.592 272.541 360.971C273.162 360.349 273.655 359.612 273.991 358.8C274.327 357.988 274.5 357.119 274.5 356.24V315.52C284.946 314.283 294.671 309.566 302.109 302.129C309.546 294.691 314.263 284.966 315.5 274.52H356.23C357.13 274.555 358.027 274.408 358.868 274.087C359.71 273.767 360.478 273.28 361.127 272.656C361.776 272.032 362.292 271.283 362.644 270.455C362.997 269.626 363.179 268.735 363.179 267.835C363.179 266.935 362.997 266.044 362.644 265.215C362.292 264.387 361.776 263.638 361.127 263.014C360.478 262.39 359.71 261.903 358.868 261.583C358.027 261.262 357.13 261.115 356.23 261.15H316.08V217.29H356.25C358.024 217.29 359.726 216.585 360.981 215.331C362.235 214.076 362.94 212.374 362.94 210.6C362.94 208.826 362.235 207.124 360.981 205.869C359.726 204.615 358.024 203.91 356.25 203.91H316.08V160.08H356.25ZM302.71 269C302.697 277.935 299.141 286.501 292.821 292.818C286.502 299.136 277.935 302.689 269 302.7H95C86.0645 302.689 77.4979 299.136 71.1786 292.818C64.8594 286.501 61.3032 277.935 61.29 269V95C61.3032 86.0636 64.859 77.497 71.178 71.178C77.497 64.8591 86.0636 61.3032 95 61.29H269C277.936 61.3032 286.503 64.8591 292.822 71.178C299.141 77.497 302.697 86.0636 302.71 95V269Z" fill="white"/>
</svg>
